<svg xmlns="http://www.w3.org/2000/svg" viewBox="0 0 297.46 61.62"><defs><style>.cls-1{fill:#fff;}</style></defs><g id="Capa_2" data-name="Capa 2"><g id="Capa_1-2" data-name="Capa 1"><path class="cls-1" d="M48.59,36.21a14.6,14.6,0,0,1,2.81,9.13A13.4,13.4,0,0,1,45.62,57Q39.83,61,28.76,61H0V3.19H27.11q10.24,0,15.78,4a12.88,12.88,0,0,1,5.54,11,14.41,14.41,0,0,1-2,7.6A13.54,13.54,0,0,1,41,31a15.24,15.24,0,0,1,7.6,5.25M10.74,11.62v16H26c3.75,0,6.62-.67,8.63-2a6.66,6.66,0,0,0,3-5.9,6.73,6.73,0,0,0-3-6c-2-1.36-4.88-2-8.63-2ZM40.58,44.26q0-8.34-12.48-8.34H10.74V52.61H28.1q12.48,0,12.48-8.35"/><path class="cls-1" d="M95,21.08q5.16,4.67,5.17,14.1V61H90.4V55.67A12,12,0,0,1,85,60.09a21.16,21.16,0,0,1-8.47,1.53,20.74,20.74,0,0,1-8.68-1.7,13.26,13.26,0,0,1-5.74-4.71,11.94,11.94,0,0,1-2-6.81,11.67,11.67,0,0,1,4.43-9.55q4.41-3.6,13.92-3.59h11.4V34.6q0-4.63-2.76-7.11C85.21,25.83,82.47,25,78.83,25a23.77,23.77,0,0,0-7.31,1.16,18,18,0,0,0-6.08,3.22l-4-7.52a24.75,24.75,0,0,1,8.34-4.05,37,37,0,0,1,10.33-1.41q9.75,0,14.92,4.67M85.57,52.32a9.62,9.62,0,0,0,4.25-5.08V42.12H79.16q-8.93,0-8.92,5.86a5.27,5.27,0,0,0,2.23,4.47,10.22,10.22,0,0,0,6.2,1.65,13.28,13.28,0,0,0,6.9-1.78"/><rect class="cls-1" x="110.56" width="9.24" height="61.32"/><rect class="cls-1" x="129.3" width="9.24" height="61.32"/><path class="cls-1" d="M242.33,21.29q5,4.88,5,14.46V61H237v-24c0-3.85-.91-6.76-2.73-8.71s-4.41-2.94-7.77-2.94q-5.7,0-9,3.43t-3.31,9.88V61H203.9V16.91h9.83v5.7A16.19,16.19,0,0,1,220.18,18a23.33,23.33,0,0,1,8.76-1.57q8.35,0,13.39,4.88"/><path class="cls-1" d="M292.29,21.08q5.16,4.67,5.17,14.1V61H287.7V55.67a12,12,0,0,1-5.41,4.42,21.19,21.19,0,0,1-8.47,1.53,20.74,20.74,0,0,1-8.68-1.7,13.26,13.26,0,0,1-5.74-4.71,11.94,11.94,0,0,1-2-6.81,11.69,11.69,0,0,1,4.42-9.55q4.43-3.6,13.93-3.59h11.4V34.6q0-4.63-2.76-7.11c-1.85-1.66-4.59-2.48-8.23-2.48a23.72,23.72,0,0,0-7.31,1.16,18,18,0,0,0-6.08,3.22l-4.05-7.52A24.9,24.9,0,0,1,267,17.82a37,37,0,0,1,10.33-1.41q9.75,0,14.92,4.67m-9.42,31.24a9.62,9.62,0,0,0,4.25-5.08V42.12H276.46q-8.93,0-8.93,5.86a5.28,5.28,0,0,0,2.24,4.47A10.21,10.21,0,0,0,276,54.1a13.32,13.32,0,0,0,6.91-1.78"/><path class="cls-1" d="M179.29,58.91c12.17-5.7,11.8-14.13,18-17.82a2.23,2.23,0,0,1,2.19-.08c-.78-3.3-4.89-4.56-8.42-2.64.49-1.85-2.86-6.1-5.78-5.46a15.79,15.79,0,0,1-3,15.17c-3.26,4-12.71,7.42-18.63,2,10.24-11.52,23.8-26.64,23.8-26.64-.91-1-1.72-1.86-2.25-2.34a24.33,24.33,0,0,0-10.81-5.83,20.24,20.24,0,0,0-11.26.58,23.07,23.07,0,0,0-9.81,6.7,23.28,23.28,0,0,0-6.2,14.64,17.81,17.81,0,0,0,.2,3.65,21.27,21.27,0,0,0,7.63,13.75c8.11,6.54,18.24,7.21,24.35,4.35M155.81,36.58A13.68,13.68,0,0,1,159.47,28a12.07,12.07,0,0,1,16.33-2.16L158.61,45.1a12.57,12.57,0,0,1-2.8-8.52"/></g></g></svg>