<svg xmlns="http://www.w3.org/2000/svg" viewBox="0 0 26.83 26.83"><defs><style>.cls-1{fill:#1a1a1a;}.cls-2{fill:#f1f1f1;}</style></defs><g id="Capa_2" data-name="Capa 2"><g id="Capa_1-2" data-name="Capa 1"><path class="cls-1" d="M26.83,13.42A13.42,13.42,0,1,0,11.32,26.67V17.3H7.91V13.42h3.41v-3c0-3.36,2-5.22,5.07-5.22a20.68,20.68,0,0,1,3,.26V8.81H17.7a1.94,1.94,0,0,0-2.19,2.09v2.52h3.73l-.6,3.88H15.51v9.37A13.41,13.41,0,0,0,26.83,13.42Z"/><path class="cls-2" d="M18.64,17.3l.6-3.88H15.51V10.9A1.94,1.94,0,0,1,17.7,8.81h1.69V5.5a20.68,20.68,0,0,0-3-.26c-3.07,0-5.07,1.86-5.07,5.22v3H7.91V17.3h3.41v9.37a13.8,13.8,0,0,0,4.19,0V17.3Z"/></g></g></svg>