<svg xmlns="http://www.w3.org/2000/svg" viewBox="0 0 26.83 26.83"><defs><style>.cls-1{fill:#1a1a1a;}.cls-2{fill:#fff;}</style></defs><g id="Capa_2" data-name="Capa 2"><g id="Capa_1-2" data-name="Capa 1"><circle class="cls-1" cx="13.42" cy="13.42" r="13.42"/><path class="cls-2" d="M17.58,8.34a.93.93,0,1,0,.92.92A.92.92,0,0,0,17.58,8.34Z"/><path class="cls-2" d="M13.48,9.52a3.88,3.88,0,1,0,3.88,3.88A3.88,3.88,0,0,0,13.48,9.52Zm0,6.36A2.48,2.48,0,1,1,16,13.4,2.48,2.48,0,0,1,13.48,15.88Z"/><path class="cls-2" d="M16.56,21.26H10.28a4.73,4.73,0,0,1-4.73-4.72V10.26a4.73,4.73,0,0,1,4.73-4.73h6.28a4.73,4.73,0,0,1,4.72,4.73v6.28A4.73,4.73,0,0,1,16.56,21.26ZM10.28,7A3.26,3.26,0,0,0,7,10.26v6.28a3.25,3.25,0,0,0,3.25,3.24h6.28a3.24,3.24,0,0,0,3.24-3.24V10.26A3.25,3.25,0,0,0,16.56,7Z"/></g></g></svg>